<svg xmlns="http://www.w3.org/2000/svg" width="649" height="135" viewBox="311 165 649 135">
<defs><radialGradient id="gb_glow" cx="50%" cy="50%" r="50%"><stop offset="0%" stop-color="#7A5CFF" stop-opacity="0.3"></stop><stop offset="100%" stop-color="#7A5CFF" stop-opacity="0"></stop></radialGradient><clipPath id="gb_clip"><path transform="translate(707.780,267.450) scale(0.13000,-0.13000)" d="M86 0V730H225V0ZM18 626V730H225V626Z"></path><path transform="translate(749.430,267.450) scale(0.13000,-0.13000)" d="M63 -214V-95H165Q194 -95 213.5 -87.5Q233 -80 246.0 -63.5Q259 -47 266 -18L412 543H545L384 -48Q368 -109 339.0 -145.5Q310 -182 264.5 -198.0Q219 -214 152 -214ZM232 12V122H348V12ZM185 12 9 543H149L316 12Z"></path><path transform="translate(824.490,267.450) scale(0.13000,-0.13000)" d="M315 -7Q240 -7 191.5 12.5Q143 32 119.0 78.5Q95 125 95 204L96 696H226L225 195Q225 155 246.5 133.5Q268 112 308 112H393V-7ZM9 441V543H393V441Z"></path><path transform="translate(882.520,267.450) scale(0.13000,-0.13000)" d="M322 -19Q252 -19 199.5 5.0Q147 29 112.5 69.5Q78 110 60.5 160.0Q43 210 43 262V281Q43 335 60.5 385.5Q78 436 112.5 475.5Q147 515 198.0 538.5Q249 562 316 562Q404 562 463.5 523.5Q523 485 553.0 422.5Q583 360 583 288V238H102V323H496L453 281Q453 333 438.0 370.0Q423 407 392.5 427.0Q362 447 316 447Q270 447 238.0 426.0Q206 405 189.5 365.5Q173 326 173 271Q173 220 189.0 180.5Q205 141 238.0 118.5Q271 96 322 96Q373 96 405.0 116.5Q437 137 446 167H574Q562 111 528.0 69.0Q494 27 441.5 4.0Q389 -19 322 -19Z"></path></clipPath><linearGradient id="gb_grad" gradientUnits="userSpaceOnUse" x1="707.78" y1="0" x2="963.12" y2="0"><stop offset="0%" stop-color="#34E0FF"></stop><stop offset="50%" stop-color="#7A5CFF"></stop><stop offset="100%" stop-color="#FF9A5A"></stop></linearGradient></defs>
<path transform="translate(316.880,267.450) scale(0.13000,-0.13000)" d="M408 0V161H385V340Q385 387 362.0 410.0Q339 433 291 433Q266 433 231.0 432.0Q196 431 160.5 429.5Q125 428 97 426V544Q120 546 149.0 548.0Q178 550 208.5 550.5Q239 551 266 551Q350 551 405.5 529.0Q461 507 489.5 460.0Q518 413 518 337V0ZM233 -14Q174 -14 129.5 7.0Q85 28 60.5 67.0Q36 106 36 161Q36 221 65.5 259.0Q95 297 148.5 316.0Q202 335 274 335H400V252H272Q224 252 198.5 228.5Q173 205 173 168Q173 131 198.5 108.0Q224 85 272 85Q301 85 325.5 95.5Q350 106 366.5 131.5Q383 157 385 201L419 162Q414 105 391.5 66.0Q369 27 329.5 6.5Q290 -14 233 -14Z" fill="#FFFFFF"></path>
<path transform="translate(395.320,267.450) scale(0.13000,-0.13000)" d="M264 -17Q170 -17 118.5 45.0Q67 107 67 229V544H206V217Q206 167 234.0 137.5Q262 108 310 108Q358 108 388.5 139.0Q419 170 419 223V544H558V0H448V231H459Q459 149 438.0 94.0Q417 39 375.0 11.0Q333 -17 270 -17Z" fill="#FFFFFF"></path>
<path transform="translate(480.390,267.450) scale(0.13000,-0.13000)" d="M304 -18Q247 -18 199.0 3.0Q151 24 116.0 62.0Q81 100 62.0 150.5Q43 201 43 260V281Q43 339 61.5 390.0Q80 441 113.5 479.0Q147 517 194.5 538.5Q242 560 300 560Q364 560 412.5 532.5Q461 505 490.0 450.0Q519 395 522 312L481 360V730H620V0H510V231H534Q531 148 500.0 92.5Q469 37 418.5 9.5Q368 -18 304 -18ZM335 99Q376 99 410.0 117.5Q444 136 464.5 171.5Q485 207 485 255V295Q485 343 464.0 375.5Q443 408 409.0 425.5Q375 443 335 443Q290 443 255.5 421.5Q221 400 201.5 361.0Q182 322 182 270Q182 218 202.0 179.5Q222 141 256.5 120.0Q291 99 335 99Z" fill="#FFFFFF"></path>
<path transform="translate(573.260,267.450) scale(0.13000,-0.13000)" d="M105 0V543H244V0ZM29 439V543H244V439ZM156 608Q115 608 95.5 629.5Q76 651 76 684Q76 717 95.5 738.0Q115 759 156 759Q197 759 216.0 738.0Q235 717 235 684Q235 651 216.0 629.5Q197 608 156 608Z" fill="#FFFFFF"></path>
<path transform="translate(617.510,267.450) scale(0.13000,-0.13000)" d="M340 -19Q268 -19 213.0 4.0Q158 27 120.0 66.5Q82 106 62.5 156.0Q43 206 43 260V281Q43 337 63.5 387.5Q84 438 122.5 477.5Q161 517 216.0 539.5Q271 562 340 562Q409 562 464.0 539.5Q519 517 557.5 477.5Q596 438 616.0 387.5Q636 337 636 281V260Q636 206 616.5 156.0Q597 106 559.0 66.5Q521 27 466.0 4.0Q411 -19 340 -19ZM340 100Q391 100 426.0 122.5Q461 145 479.0 183.5Q497 222 497 271Q497 321 478.5 359.5Q460 398 424.5 420.5Q389 443 340 443Q291 443 255.5 420.5Q220 398 201.0 359.5Q182 321 182 270Q182 222 200.5 183.5Q219 145 254.0 122.5Q289 100 340 100Z" fill="#FFFFFF"></path>
<rect x="0" y="0" width="1280" height="440" fill="url(#gb_grad)" clip-path="url(#gb_clip)"></rect>
</svg>